<svg xmlns="http://www.w3.org/2000/svg" viewBox="0 0 240 56.3"><path d="M74 5v18h-5V5H59V0h25v5H74zm156 26v18h-5V31h-10v-5h25v5h-10zm-97-8v-5h-15v5h-5V7c0-3.9 3.2-7 7-7h11c3.8 0 7 3.1 7 7v16h-5zm0-16c0-1.1-.9-2-2-2h-11c-1.1 0-2 .9-2 2v6h15V7zM77 49H60v-5h17c1.1 0 2-.9 2-2s-.9-2-2-2H66c-3.8 0-7-3.1-7-7s3.2-7 7-7h17v5H66c-1.1.1-2 .9-2 2 .1 1 1 1.9 2 2h11c3.8 0 7 3.1 7 7s-3.2 7-7 7zm26 0H92c-3.8 0-7-3.1-7-7V26h5v16c0 1.1.9 2 2 2h11c1.1 0 2-.9 2-2V26h5v16c0 3.9-3.2 7-7 7zm26-5h-13v5h-5V26h18c3.8 0 7 3.1 7 7v4c0 3.9-3.2 7-7 7zm2-11c0-1.1-.9-2-2-2h-13v8h13c1.1 0 2-.9 2-2v-4zm24 11h-13v5h-5V26h18c3.8 0 7 3.1 7 7v4c0 3.9-3.2 7-7 7zm2-11c0-1.1-.9-2-2-2h-13v8h13c1.1 0 2-.9 2-2v-4zm24 16h-11c-3.8 0-7-3.1-7-7v-9c0-3.9 3.2-7 7-7h11c3.8 0 7 3.1 7 7v9c0 3.9-3.2 7-7 7zm2-16c0-1.1-.9-2-2-2h-11c-1.1 0-2 .9-2 2v9c0 1.1.9 2 2 2h11c1.1 0 2-.9 2-2v-9zM111 5V0H86v23h25v-5H91v-4h20V9H91V5h20zm51-5l-8.5 9-8.5-9h-5v23h5V7l8.5 9 8.5-9v16h5V0h-5zm57 56l-12-12c3.7-.1 7-3.2 7-7v-4c0-3.8-3.2-7-7-7h-18v23h5v-5h6l12 12h7zm-25-25h13c1.1 0 2 .9 2 2v4c0 1.1-.9 2-2 2h-13v-8z" fill="#707173"/><path d="M12.3 13c.9-.2 1.9 0 2.7.5 1.7 1.1 2.1 3.3 1 5s-3.3 2.1-5 1c-1.2-.8-1.8-2.3-1.5-3.7-4.8 5.3-8 11.7-9.4 18.6-1-16 11.2-29.8 27.2-30.9 1.2-.1 2.5-.1 3.7 0C24 5 17.5 8.3 12.3 13z" fill="#0e9bd8"/><path d="M12.7 43.4c-.4-1.9.9-3.8 2.8-4.2s3.8.9 4.2 2.8-.9 3.8-2.8 4.2c-.5.1-.9.1-1.4 0 5.2 4.8 11.7 8 18.6 9.4-16 1-29.8-11.1-30.9-27.1-.1-1.2-.1-2.5 0-3.7 1.5 6.9 4.8 13.3 9.5 18.6z" fill="#d8515c"/><path d="M43.1 42.9c-1.9.4-3.8-.9-4.2-2.8s.9-3.8 2.8-4.2 3.8.9 4.2 2.8c.1.5.1.9 0 1.4 4.8-5.2 8-11.7 9.4-18.6 1 16-11.1 29.8-27.2 30.9-1.2.1-2.5.1-3.7 0 7-1.5 13.4-4.7 18.7-9.5z" fill="#e47a3a"/><path d="M42.6 12.6c.4 1.9-.9 3.8-2.8 4.2S36 16 35.6 14s.9-3.8 2.8-4.2c.5-.1 1-.1 1.4 0C34.6 5 28.1 1.8 21.2.4c16-1 29.8 11.1 30.9 27.2.1 1.2.1 2.5 0 3.7-1.4-7-4.7-13.5-9.5-18.7z" fill="#ffc212"/></svg>